<?xml version="1.0" encoding="UTF-8"?>
<svg id="a" data-name="Layer_1" xmlns="http://www.w3.org/2000/svg" width="973.68" height="341.187" viewBox="0 0 973.68 341.187">
  <path d="M42.653,163.046V54.799h21.496c11.134,0,19.793,2.319,25.98,6.957,6.184,4.64,9.278,11.084,9.278,19.331,0,6.082-1.806,11.265-5.413,15.541-3.611,4.278-8.66,7.19-15.155,8.736v.928c8.865,1.137,15.797,4.202,20.799,9.202,5,5.002,7.499,11.315,7.499,18.944,0,8.969-3.454,15.981-10.361,21.03-6.908,5.053-16.599,7.578-29.072,7.578h-25.052ZM64.303,58.51h-11.135v46.391h10.981c16.287,0,24.432-7.732,24.432-23.195s-8.094-23.197-24.277-23.197ZM67.704,108.613h-14.537v50.72h14.537c18.866,0,28.299-8.451,28.299-25.359s-9.433-25.361-28.299-25.361Z"/>
  <path d="M121.981,163.046l41.599-108.247h9.588l41.599,108.247h-11.288l-19.177-50.722h-35.103l-15.926,50.722h-11.29ZM164.662,62.84l-14.38,45.773h32.628l-17.32-45.773h-.928Z"/>
  <path d="M252.186,163.046V57.891c-1.546,0-4.744.309-9.588.928l-30.309,3.867v-7.887h90.309v7.887l-30.31-3.867c-4.847-.618-8.041-.928-9.588-.928v105.155h-10.515Z"/>
  <path d="M321.463,163.046V54.799h10.515v50.102h64.95v-50.102h10.515v108.247h-10.515v-54.433h-64.95v54.433h-10.515Z"/>
  <path d="M441.462,163.046V54.799h10.515v50.102h64.95v-50.102h10.515v108.247h-10.515v-54.433h-64.95v54.433h-10.515Z"/>
  <path d="M549.089,108.923c0-7.938,1.417-15.333,4.253-22.191,2.836-6.855,6.805-12.836,11.908-17.938,5.102-5.104,11.081-9.071,17.938-11.908,6.854-2.834,14.251-4.253,22.191-4.253s15.333,1.419,22.191,4.253c6.854,2.838,12.834,6.805,17.938,11.908s9.069,11.083,11.907,17.938c2.834,6.857,4.253,14.253,4.253,22.191s-1.419,15.335-4.253,22.191c-2.838,6.857-6.805,12.834-11.907,17.938-5.104,5.102-11.084,9.073-17.938,11.907-6.857,2.834-14.255,4.253-22.191,4.253s-15.337-1.419-22.191-4.253c-6.857-2.834-12.836-6.805-17.938-11.907-5.104-5.104-9.073-11.081-11.908-17.938-2.836-6.855-4.253-14.251-4.253-22.191ZM560.843,108.923c0,10.515,1.855,19.715,5.566,27.602,3.712,7.887,8.916,14.022,15.619,18.402,6.701,4.384,14.482,6.574,23.351,6.574s16.647-2.19,23.349-6.574c6.701-4.38,11.908-10.539,15.619-18.478,3.711-7.938,5.568-17.112,5.568-27.526s-1.857-19.562-5.568-27.449c-3.711-7.887-8.918-14.046-15.619-18.478-6.703-4.433-14.484-6.65-23.349-6.65s-16.625,2.192-23.273,6.572c-6.65,4.384-11.858,10.515-15.619,18.402-3.765,7.887-5.644,17.089-5.644,27.604Z"/>
  <path d="M685.015,54.799h10.515v65.257c0,12.474,3.067,22.191,9.202,29.15,6.132,6.957,14.768,10.437,25.901,10.437,7.01,0,13.118-1.364,18.326-4.098,5.204-2.73,9.226-6.519,12.061-11.365,2.834-4.846,4.149-10.411,3.943-16.701l-2.628-72.68h10.515l-2.628,72.68c-.415,12.37-4.098,21.752-11.057,28.144-6.959,6.393-16.883,9.588-29.768,9.588-13.918,0-24.795-4.045-32.63-12.139-7.836-8.092-11.752-19.199-11.752-33.324V54.799Z"/>
  <path d="M794.345,159.643l.928-9.278h.928c4.022,3.507,8.556,6.239,13.609,8.196,5.049,1.961,10.051,2.939,15.001,2.939,7.008,0,12.68-1.934,17.009-5.801,4.331-3.865,6.495-9.045,6.495-15.541,0-3.607-.799-6.959-2.397-10.051s-4.227-6.237-7.885-9.433c-3.661-3.194-8.687-6.65-15.079-10.361-4.433-2.576-8.66-5.282-12.68-8.12-4.02-2.834-7.321-6.132-9.897-9.897-2.579-3.762-3.867-8.272-3.867-13.531,0-7.832,2.836-14.149,8.505-18.942,5.67-4.795,13.145-7.192,22.424-7.192,4.122,0,8.556.44,13.298,1.315,4.742.877,8.402,1.986,10.981,3.325l-.773,8.66h-.929c-5.875-6.392-13.402-9.588-22.576-9.588-6.599,0-11.907,1.677-15.928,5.026-4.02,3.35-6.032,7.861-6.032,13.531,0,4.229,1.108,7.861,3.325,10.903,2.215,3.041,5.077,5.773,8.583,8.196,3.503,2.423,7.268,4.769,11.288,7.036,4.64,2.681,9.147,5.517,13.531,8.505,4.38,2.99,7.989,6.572,10.824,10.746,2.834,4.176,4.253,9.409,4.253,15.697,0,5.775-1.341,10.852-4.02,15.232-2.683,4.384-6.472,7.809-11.366,10.284-4.898,2.474-10.593,3.711-17.087,3.711-4.125,0-8.969-.517-14.537-1.546-5.568-1.03-10.877-2.37-15.928-4.022Z"/>
  <path d="M883.261,163.046V54.799h47.166v7.578l-27.064-3.558c-4.742-.618-7.94-.928-9.588-.928v47.164c1.339,0,4.536-.155,9.588-.464l25.361-1.546v7.114l-25.361-1.546c-5.051-.309-8.249-.464-9.588-.464v51.803c1.857,0,5.104-.309,9.744-.928l27.371-3.556v7.578h-47.63Z"/>
  <g>
    <path d="M441.462,262.773h13.178c0,10.715,8.535,14.887,28.919,14.887,17.729,0,25.126-2.94,25.126-11.001,0-7.964-5.501-9.102-25.789-10.429l-3.793-.283c-26.358-1.613-35.649-6.923-35.649-20.575,0-13.368,12.988-19.06,36.597-19.06,25.601,0,38.494,7.587,38.873,23.232h-13.084c0-10.527-9.387-13.749-26.831-13.749-16.308,0-22.471,2.653-22.471,9.577,0,7.87,5.687,9.577,24.272,10.904l3.982.283c23.797,1.707,36.977,3.603,36.977,19.723,0,15.928-14.412,20.857-38.21,20.857-27.306,0-41.622-6.068-42.097-24.366Z"/>
    <path d="M535.321,218.02h77.556v10.809h-32.426v56.414h-12.609v-56.414h-32.52v-10.809Z"/>
    <path d="M626.903,252.439v-34.418h12.705v34.037c0,12.23,4.93,24.272,26.547,24.272s26.452-12.136,26.452-24.272v-34.037h12.705v34.418c0,20.575-10.05,34.701-39.158,34.701s-39.252-14.126-39.252-34.701Z"/>
    <path d="M720.856,218.02h43.803c20.384,0,35.46,14.224,35.46,33.566s-15.076,33.657-35.46,33.657h-43.803v-67.223ZM759.729,274.434c16.591,0,27.306-9.008,27.306-22.848,0-13.749-10.715-22.757-27.306-22.757h-26.168v45.604h26.168Z"/>
    <path d="M814.145,218.02h12.705v67.223h-12.705v-67.223Z"/>
    <path d="M840.882,251.587c0-21.43,17.35-35.274,44.56-35.274s44.468,13.938,44.468,35.274c0,21.521-17.35,35.553-44.468,35.553s-44.56-14.032-44.56-35.553ZM885.443,276.33c19.437,0,31.384-10.142,31.384-24.743,0-14.507-11.851-24.558-31.384-24.558s-31.382,10.052-31.382,24.558c0,14.695,11.851,24.743,31.382,24.743Z"/>
  </g>
  <rect width="973.68" height="341.187" style="fill: none;"/>
</svg>